<?xml version="1.0" encoding="UTF-8" standalone="no"?>
<!DOCTYPE svg PUBLIC "-//W3C//DTD SVG 1.1//EN" "http://www.w3.org/Graphics/SVG/1.1/DTD/svg11.dtd">
<svg version="1.1" xmlns="http://www.w3.org/2000/svg" xmlns:xlink="http://www.w3.org/1999/xlink" preserveAspectRatio="xMidYMid meet" viewBox="0 0 640 640" width="640" height="640"><defs><path d="M270.38 120.02L270.38 573.95L134.33 573.95L134.33 120.02L270.38 120.02Z" id="ikmWiqzvH"></path><path d="M500.72 132.15L500.72 573.95L372.75 573.95L372.75 132.15L500.72 132.15Z" id="dElm6MMLJ"></path><path d="M391.61 29.78L391.61 510.65L247.48 510.65L247.48 29.78L391.61 29.78Z" id="aDk0um76S"></path><path d="M0 318.9C0 282.51 4.91 252.12 16.49 217.37C48.11 122.52 122.52 48.11 217.37 16.49C252.12 4.91 282.51 0 318.9 0C355.29 0 385.68 4.91 420.43 16.49C515.28 48.11 589.69 122.52 621.31 217.37C632.9 252.12 637.8 282.51 637.8 318.9C637.8 355.29 632.9 385.68 621.31 420.43C585.47 527.96 496.07 607.28 382.95 631.81C366.87 635.35 363.74 635.49 322.99 635.89C284.97 636.3 278.29 636.03 265.07 633.58C147.87 612.59 53.56 531.64 16.49 420.43C4.91 385.68 0 355.29 0 318.9ZM166.26 316.72C166.26 305.7 166.26 250.54 166.26 151.27C165.49 151.27 161.63 151.27 154.68 151.27C147.65 151.27 143.74 151.27 142.96 151.27C143.29 254.14 143.46 311.28 143.51 322.72C143.78 482.85 144.05 494.57 146.37 502.07C156.04 534.09 176.76 553.72 210.15 562.71C224.73 566.66 225.28 566.12 213.69 559.44C194.34 548.13 180.3 532.05 173.35 513.38C166.26 494.57 166.26 494.57 166.26 316.72ZM498.52 321.35C498.55 310.02 498.69 253.32 498.93 151.27C498.16 151.27 494.3 151.27 487.35 151.27C480.4 151.27 476.53 151.27 475.76 151.27C475.44 253.32 475.26 310.02 475.22 321.35C474.81 512.15 475.49 499.75 464.59 521.96C457.36 536.41 444.28 550.04 428.61 559.3C417.16 566.12 417.98 566.25 435.42 561.21C466.63 552.22 486.67 531.91 495.52 500.16C497.84 491.84 498.11 481.08 498.52 321.35ZM201.7 314.54C201.7 303.65 201.7 249.23 201.7 151.27C200.93 151.27 197.06 151.27 190.11 151.27C183.08 151.27 179.18 151.27 178.39 151.27C178.72 254.14 178.9 311.28 178.94 322.72C179.35 480.94 179.48 494.71 181.66 502.88C188.62 528.5 203.47 546.77 226.5 557.94C233.45 561.35 239.86 564.21 240.68 564.21C241.49 564.21 237.13 559.03 230.86 552.76C214.1 535.73 206.33 518.28 203.06 489.94C202.24 482.17 201.7 417.57 201.7 314.54ZM237.54 326.12C237.5 314.47 237.32 256.18 237 151.27C236.22 151.27 232.36 151.27 225.41 151.27C218.54 151.27 214.73 151.27 213.96 151.27C213.96 250.46 213.96 305.56 213.96 316.58C213.96 420.7 214.51 486.12 215.33 493.34C218.87 522.78 229.91 544.04 248.72 558.08C258.26 565.16 260.16 565.71 256.21 560.12C252.26 554.53 245.99 540.36 243.95 532.18C238.09 508.88 238.09 508.74 237.54 326.12ZM427.65 307.32C427.63 296.96 427.49 245.17 427.25 151.96C426.5 151.93 422.78 151.79 416.07 151.55C409.37 151.3 405.64 151.16 404.9 151.14C404.57 255.23 404.39 313.05 404.35 324.63C403.94 480.26 403.53 499.61 401.49 512.97C398.49 531.64 393.99 546.36 387.86 556.31C387.55 556.84 386.01 559.47 383.23 564.21C385.76 562.82 387.17 562.04 387.45 561.89C389.9 560.67 396.17 555.35 401.35 550.04C412.53 538.73 416.89 531.09 421.79 514.6C427.52 494.43 428.06 476.04 427.65 307.32ZM462.95 321.22C462.99 309.89 463.17 253.24 463.5 151.27C462.72 151.27 458.86 151.27 451.91 151.27C444.96 151.27 441.1 151.27 440.33 151.27C440 253.65 439.82 310.52 439.78 321.9C439.38 449.19 438.83 494.57 437.6 500.16C432.29 524.55 422.75 542.54 407.62 556.44C402.99 560.67 399.44 564.21 399.99 564.21C400.4 564.21 404.35 562.71 408.85 560.94C429.02 552.76 444.55 538.32 453.28 519.92C462.95 499.61 462.41 509.97 462.95 321.22ZM257.3 48.65C255.26 47.43 253.35 46.34 252.94 46.34C252.67 46.34 254.44 49.74 256.89 53.97C265.75 68.69 270.25 87.22 272.43 118.7C273.38 130.7 273.93 209.88 273.93 322.72C273.93 335 273.93 396.42 273.93 506.97C274.7 506.97 278.56 506.97 285.51 506.97L297.23 506.97C296.91 389.06 296.72 323.55 296.69 310.45C296.32 178.8 295.42 110.08 293.96 104.26C287.56 78.09 275.97 60.51 257.3 48.65ZM328.85 105.89C320.95 78.09 303.23 59.15 274.47 47.97C274.01 47.79 271.69 46.88 267.52 45.25C274.64 52.28 278.59 56.19 279.38 56.97C296.82 74.55 304.73 92.26 308 121.56C308.82 128.24 309.36 210.56 309.36 319.99C309.36 332.46 309.36 394.78 309.36 506.97C310.13 506.97 314 506.97 320.95 506.97L332.53 506.97L332.26 311.81L331.85 116.52C329.99 109.91 328.99 106.36 328.85 105.89ZM340.16 67.46C327.08 56.83 309.23 48.65 292.33 45.79C287.28 44.84 287.56 45.25 297.78 51.24C319.86 64.19 334.16 82.72 341.12 107.53C341.32 108.22 342.31 111.67 344.11 117.88C344.14 130.86 344.28 195.73 344.52 312.5L344.93 506.97L356.38 506.97L367.96 506.97C367.96 393.15 367.96 329.91 367.96 317.27C367.6 188.71 367.1 122.48 366.46 118.57C363.19 98.4 352.56 77.68 340.16 67.46Z" id="h2vi62Uz6"></path><path d="M0 318.9C0 282.51 4.91 252.12 16.49 217.37C48.11 122.52 122.52 48.11 217.37 16.49C252.12 4.91 282.51 0 318.9 0C355.29 0 385.68 4.91 420.43 16.49C515.28 48.11 589.69 122.52 621.31 217.37C632.9 252.12 637.8 282.51 637.8 318.9C637.8 355.29 632.9 385.68 621.31 420.43C585.47 527.96 496.07 607.28 382.95 631.81C366.87 635.35 363.74 635.49 322.99 635.89C284.97 636.3 278.29 636.03 265.07 633.58C147.87 612.59 53.56 531.64 16.49 420.43C4.91 385.68 0 355.29 0 318.9ZM166.26 316.72C166.26 305.7 166.26 250.54 166.26 151.27C165.49 151.27 161.63 151.27 154.68 151.27C147.65 151.27 143.74 151.27 142.96 151.27C143.29 254.14 143.46 311.28 143.51 322.72C143.78 482.85 144.05 494.57 146.37 502.07C156.04 534.09 176.76 553.72 210.15 562.71C224.73 566.66 225.28 566.12 213.69 559.44C194.34 548.13 180.3 532.05 173.35 513.38C166.26 494.57 166.26 494.57 166.26 316.72ZM498.52 321.35C498.55 310.02 498.69 253.32 498.93 151.27C498.16 151.27 494.3 151.27 487.35 151.27C480.4 151.27 476.53 151.27 475.76 151.27C475.44 253.32 475.26 310.02 475.22 321.35C474.81 512.15 475.49 499.75 464.59 521.96C457.36 536.41 444.28 550.04 428.61 559.3C417.16 566.12 417.98 566.25 435.42 561.21C466.63 552.22 486.67 531.91 495.52 500.16C497.84 491.84 498.11 481.08 498.52 321.35ZM201.7 314.54C201.7 303.65 201.7 249.23 201.7 151.27C200.93 151.27 197.06 151.27 190.11 151.27C183.08 151.27 179.18 151.27 178.39 151.27C178.72 254.14 178.9 311.28 178.94 322.72C179.35 480.94 179.48 494.71 181.66 502.88C188.62 528.5 203.47 546.77 226.5 557.94C233.45 561.35 239.86 564.21 240.68 564.21C241.49 564.21 237.13 559.03 230.86 552.76C214.1 535.73 206.33 518.28 203.06 489.94C202.24 482.17 201.7 417.57 201.7 314.54ZM237.54 326.12C237.5 314.47 237.32 256.18 237 151.27C236.22 151.27 232.36 151.27 225.41 151.27C218.54 151.27 214.73 151.27 213.96 151.27C213.96 250.46 213.96 305.56 213.96 316.58C213.96 420.7 214.51 486.12 215.33 493.34C218.87 522.78 229.91 544.04 248.72 558.08C258.26 565.16 260.16 565.71 256.21 560.12C252.26 554.53 245.99 540.36 243.95 532.18C238.09 508.88 238.09 508.74 237.54 326.12ZM427.65 307.32C427.63 296.96 427.49 245.17 427.25 151.96C426.5 151.93 422.78 151.79 416.07 151.55C409.37 151.3 405.64 151.16 404.9 151.14C404.57 255.23 404.39 313.05 404.35 324.63C403.94 480.26 403.53 499.61 401.49 512.97C398.49 531.64 393.99 546.36 387.86 556.31C387.55 556.84 386.01 559.47 383.23 564.21C385.76 562.82 387.17 562.04 387.45 561.89C389.9 560.67 396.17 555.35 401.35 550.04C412.53 538.73 416.89 531.09 421.79 514.6C427.52 494.43 428.06 476.04 427.65 307.32ZM462.95 321.22C462.99 309.89 463.17 253.24 463.5 151.27C462.72 151.27 458.86 151.27 451.91 151.27C444.96 151.27 441.1 151.27 440.33 151.27C440 253.65 439.82 310.52 439.78 321.9C439.38 449.19 438.83 494.57 437.6 500.16C432.29 524.55 422.75 542.54 407.62 556.44C402.99 560.67 399.44 564.21 399.99 564.21C400.4 564.21 404.35 562.71 408.85 560.94C429.02 552.76 444.55 538.32 453.28 519.92C462.95 499.61 462.41 509.97 462.95 321.22ZM257.3 48.65C255.26 47.43 253.35 46.34 252.94 46.34C252.67 46.34 254.44 49.74 256.89 53.97C265.75 68.69 270.25 87.22 272.43 118.7C273.38 130.7 273.93 209.88 273.93 322.72C273.93 335 273.93 396.42 273.93 506.97C274.7 506.97 278.56 506.97 285.51 506.97L297.23 506.97C296.91 389.06 296.72 323.55 296.69 310.45C296.32 178.8 295.42 110.08 293.96 104.26C287.56 78.09 275.97 60.51 257.3 48.65ZM328.85 105.89C320.95 78.09 303.23 59.15 274.47 47.97C274.01 47.79 271.69 46.88 267.52 45.25C274.64 52.28 278.59 56.19 279.38 56.97C296.82 74.55 304.73 92.26 308 121.56C308.82 128.24 309.36 210.56 309.36 319.99C309.36 332.46 309.36 394.78 309.36 506.97C310.13 506.97 314 506.97 320.95 506.97L332.53 506.97L332.26 311.81L331.85 116.52C329.99 109.91 328.99 106.36 328.85 105.89ZM340.16 67.46C327.08 56.83 309.23 48.65 292.33 45.79C287.28 44.84 287.56 45.25 297.78 51.24C319.86 64.19 334.16 82.72 341.12 107.53C341.32 108.22 342.31 111.67 344.11 117.88C344.14 130.86 344.28 195.73 344.52 312.5L344.93 506.97L356.38 506.97L367.96 506.97C367.96 393.15 367.96 329.91 367.96 317.27C367.6 188.71 367.1 122.48 366.46 118.57C363.19 98.4 352.56 77.68 340.16 67.46Z" id="a65o44iRXv"></path></defs><g><g><g><use xlink:href="#ikmWiqzvH" opacity="1" fill="#006b3b" fill-opacity="1"></use><g><use xlink:href="#ikmWiqzvH" opacity="1" fill-opacity="0" stroke="#000000" stroke-width="1" stroke-opacity="0"></use></g></g><g><use xlink:href="#dElm6MMLJ" opacity="1" fill="#b11028" fill-opacity="1"></use><g><use xlink:href="#dElm6MMLJ" opacity="1" fill-opacity="0" stroke="#000000" stroke-width="1" stroke-opacity="0"></use></g></g><g><use xlink:href="#aDk0um76S" opacity="1" fill="#000000" fill-opacity="1"></use><g><use xlink:href="#aDk0um76S" opacity="1" fill-opacity="0" stroke="#000000" stroke-width="1" stroke-opacity="0"></use></g></g><g><use xlink:href="#h2vi62Uz6" opacity="1" fill="#fefefe" fill-opacity="1"></use><g><use xlink:href="#h2vi62Uz6" opacity="1" fill-opacity="0" stroke="#000000" stroke-width="1" stroke-opacity="0"></use></g></g><g><use xlink:href="#a65o44iRXv" opacity="1" fill="#000000" fill-opacity="0"></use><g><use xlink:href="#a65o44iRXv" opacity="1" fill-opacity="0" stroke="#000000" stroke-width="1" stroke-opacity="0"></use></g></g></g></g></svg>